<?xml version="1.0" encoding="utf-8"?>
<!-- Generator: Adobe Illustrator 16.0.0, SVG Export Plug-In . SVG Version: 6.00 Build 0)  -->
<!DOCTYPE svg PUBLIC "-//W3C//DTD SVG 1.0//EN" "http://www.w3.org/TR/2001/REC-SVG-20010904/DTD/svg10.dtd">
<svg version="1.0" id="Layer_1" xmlns="http://www.w3.org/2000/svg" xmlns:xlink="http://www.w3.org/1999/xlink" x="0px" y="0px"
	 width="13.119px" height="13.04px" viewBox="0 0 13.119 13.04" enable-background="new 0 0 13.119 13.04" xml:space="preserve">
<path fill="#FFFFFF" d="M12.787,10.013c-0.338-0.25-1.303-1.146-1.303-1.952V4.924C11.484,2.209,9.274,0,6.56,0
	C3.845,0,1.636,2.209,1.636,4.924v3.137c0,0.872-0.922,1.691-1.274,1.932c-0.299,0.201-0.431,0.573-0.326,0.918
	c0.104,0.345,0.422,0.579,0.782,0.579H5c0.007,0.857,0.703,1.549,1.561,1.549c0.857,0,1.553-0.691,1.56-1.549h4.182
	c0.354,0,0.666-0.227,0.776-0.562C13.188,10.592,13.07,10.223,12.787,10.013z M2.713,9.854c0.315-0.501,0.558-1.107,0.558-1.793
	V4.924c0-1.813,1.475-3.288,3.289-3.288c1.813,0,3.288,1.475,3.288,3.288v3.137c0,0.673,0.254,1.286,0.581,1.793H2.713z"/>
</svg>
