<?xml version="1.0" encoding="utf-8"?>
<!-- Generator: Adobe Illustrator 16.0.0, SVG Export Plug-In . SVG Version: 6.00 Build 0)  -->
<!DOCTYPE svg PUBLIC "-//W3C//DTD SVG 1.0//EN" "http://www.w3.org/TR/2001/REC-SVG-20010904/DTD/svg10.dtd">
<svg version="1.0" id="Layer_1" xmlns="http://www.w3.org/2000/svg" xmlns:xlink="http://www.w3.org/1999/xlink" x="0px" y="0px"
	 width="120px" height="106.607px" viewBox="0 0 120 106.607" enable-background="new 0 0 120 106.607" xml:space="preserve">
<g>
	<g>
		<g>
			<g>
				<path fill="#FFFFFF" d="M57.557,5.522"/>
				<polygon fill="#FFFFFF" points="28.844,14.132 23.847,12.755 25.25,8.306 20.03,18.603 21.48,22.49 22.62,16.897 				"/>
				<polygon fill="#FFFFFF" points="24.437,30.048 30.19,31.977 29.456,38.114 24.437,39.429 27.314,34.739 				"/>
			</g>
		</g>
		<g>
			<g>
				<path fill="#DEDFDC" d="M19.878,13.457c0,0,1.053,2.981,1.666,2.455c0.614-0.526,1.403-1.578,1.403-1.578
					s-1.491,4.033,0.789,2.191c2.279-1.841,9.205-5.786,9.205-5.786s-9.556,10.273-7.365,8.556c2.191-1.717,9.469-4.181,9.469-4.181
					s-7.277,7.395-2.98,6.025c4.296-1.37,11.852-9.348,19.909-11.452s8.058-2.104,8.058-2.104l-1.578,1.052
					c0,0,5.172-0.789,8.329,4.121c0,0-8.066-3.77-10.521-1.403c-2.455,2.367-0.92,4.296-0.92,4.296l1.775,2.806l0.811,3.77
					l1.403-2.104l-0.264,1.534l0.933-1.447l-0.845,3.112l1.315-0.363c0,0-3.784,5.931-8.95,8.21c0,0,10.703-0.682,13.596-9.371
					c0,0,0,4.007-1.929,5.549c0,0,0.525,0.666,2.893-1.526c0,0-4.909,5.046-9.819,6.38c-4.909,1.334-8.417,3-8.417,3
					s6.138,0.176,9.731,1.447c3.595,1.271,8.943,2.216,12.537,7.179c3.595,4.963,3.595,4.963,3.595,4.963l-3.507-3.156
					c0,0,1.49,3.232,2.017,8.279c0,0-2.95-6.012-6.488-7.402c0,0,5.787,7.627,5.874,13.062c0,0-5.787-9.205-8.592-11.397
					c-2.805-2.192-12.011-7.627-12.273-7.802C50.472,40.195,29.115,26.21,29.115,26.21l-11.057-7.757L19.878,13.457z"/>
				<path fill="#FEFEFE" d="M33.971,6.925c7.298-2.301,18.674-4.537,28.734-4.076c10.061,0.46,13.15,2.17,13.15,2.17l-6.312,2.367
					c0,0,12.822-0.789,25.183,8.285c0,0-4.866-0.066-7.364,0.986c0,0,25.622,13.545,28.865,42.477c0,0-10.608-6.838-13.589-8.154
					c0,0,13.94,9.294,5.874,40.504c0,0-2.016-19.113-11.047-23.54c0,0,7.803,17.754-7.189,33.623c0,0,5.875-22.005-8.417-30.247
					c0,0,0.702,17.359-13.062,26.214c0,0,9.556-18.236-2.28-31.475c0,0,0.175,20.866-13.063,27.879c0,0,9.118-12.8,2.894-25.074
					c0,0-5.523,18.499-21.48,19.2c0,0,21.654-10.971,17.446-34.155c0,0,3.857,2.417,4.909,5.661c0,0,0.789-3.256-0.263-5.661
					c0,0,3.683,3.206,4.121,5.924c0,0-0.088-9.732-3.507-12.713c0,0,6.4,2.543,9.995,9.645c0,0-0.131-10.521-10.455-14.904
					c0,0,5.984-0.019,9.49,1.963c0,0-5.883-6.813-17.381-8.012c0,0,9.754-0.328,12.209-5.512c0,0-4.703,1.543-8.313,1.38
					c0,0,7.022-2.707,6.878-5.95c0,0-4.352,7.334-17.239,4.062c0,0,13.326,1.767,15.255-12.414c0,0,2.191-1.074,4.997,0
					c0,0,0.176-4.361-4.384-6.115c-4.559-1.753-9.118,1.579-13.94,4.121c-4.821,2.542-10.257,8.767-13.326,7.934
					s-2.542-4.647,0.614-5.94c3.157-1.292,6.663-2.695,6.663-2.695s-4.077-0.46-8.745,2.235c-4.669,2.696-5.589,4.876-5.589,4.876
					s-2.301-1.118-2.301-2.307c0-1.188,0-2.898,0-2.898l-0.789,2.236c0,0-1.578-2.164-0.395-4.172
					C22.005,12.645,26.673,9.227,33.971,6.925z"/>
				<path fill="#DFE0DD" d="M48.327,36.119c0,0,6.708-1.709,14.729,1.973c8.021,3.683,10.652,10.784,10.652,10.784L69.5,46.114
					l3.288,8.942c0,0-3.419-6.707-5.787-7.627c-2.367-0.92-2.367-0.92-2.367-0.92s5.654,8.811,5.917,11.572
					c0,0-5.261-8.416-9.534-10.652c-4.274-2.236-7.167-4.734-7.167-4.734L48.327,36.119z"/>
				<path fill="#1F1A17" d="M0.24,36.909c1.184,7.364,5.655,10.784,5.655,10.784l0,0c0,0,3.246-8.702,24.682-1.601
					c1.643,0.544,3.558,5.046,7.615,8.427c3.669,3.058,4.815,5.276,5.315,6.587c1.053,2.761-2.104,5.786-2.104,5.786
					c2.498,0,4.471-3.156,4.471-3.156c0.526,6.575-6.97,9.995-6.97,9.995c4.997,0,9.337-5.392,9.337-5.392
					c-1.184,13.282-18.674,20.251-18.674,20.251c20.121,3.814,26.695-13.676,26.695-13.676c1.184,14.203-8.679,22.882-8.679,22.882
					c18.674-3.945,21.184-24.329,21.184-24.329c2.116,11.309-5.535,31.956-5.535,31.956c19.332-8.153,21.83-26.17,21.83-26.17
					c4.734,5.918,2.63,27.354,2.63,27.354c16.965-10.521,14.86-28.8,14.86-28.8c2.762,4.208,5.173,21.216,5.173,21.216
					c11.66-24.285,2.894-39.803,2.894-39.803s1.402,0.79,3.77,2.543c2.367,1.754,5.611,6.225,5.611,6.225s0.176-13.676-5.348-27.879
					S95.451,18.192,95.451,18.192l8.154-1.052c0,0-3.156-3.244-9.644-5.962C87.473,8.46,78.882,5.83,78.882,5.83l3.222-1.732
					c0,0-2.564-0.854-11.244-2.958c-8.68-2.105-22.356-1.316-36.888,2.563C19.44,7.582,17.533,16.064,17.533,16.064
					c-3.222,0.986-2.958,3.485-2.958,3.485S8.789,21.127,5.633,23.1C2.476,25.073-0.944,29.544,0.24,36.909z M20.821,14.654
					c1.184-2.008,5.853-5.427,13.151-7.729c7.298-2.301,18.674-4.537,28.734-4.076c10.061,0.46,13.15,2.17,13.15,2.17l-6.312,2.367
					c0,0,12.822-0.789,25.183,8.285c0,0-4.866-0.066-7.364,0.986c0,0,25.622,13.545,28.865,42.476c0,0-10.608-6.838-13.589-8.153
					c0,0,13.94,9.293,5.874,40.504c0,0-2.016-19.113-11.047-23.54c0,0,7.803,17.753-7.189,33.623c0,0,5.875-22.006-8.417-30.247
					c0,0,0.702,17.359-13.062,26.213c0,0,9.556-18.235-2.28-31.474c0,0,0.175,20.866-13.063,27.879c0,0,9.118-12.8,2.894-25.074
					c0,0-5.523,18.499-21.48,19.2c0,0,21.654-10.971,17.446-34.154c0,0,3.857,2.417,4.909,5.661c0,0,0.789-3.256-0.263-5.661
					c0,0,3.683,3.206,4.121,5.924c0,0-0.088-9.731-3.507-12.712c0,0,6.4,2.542,9.995,9.644c0,0-0.131-10.521-10.455-14.904
					c0,0,5.984-0.019,9.49,1.963c0,0-5.883-6.813-17.381-8.012c0,0,9.754-0.328,12.209-5.512c0,0-4.703,1.543-8.313,1.38
					c0,0,7.022-2.707,6.878-5.95c0,0-4.352,7.334-17.239,4.062c0,0,13.326,1.768,15.255-12.413c0,0,2.191-1.074,4.997,0
					c0,0,0.176-4.361-4.384-6.115c-4.559-1.753-9.118,1.579-13.94,4.121c-4.821,2.542-10.257,8.767-13.326,7.934
					c-3.069-0.833-2.542-4.647,0.614-5.94c3.157-1.292,6.663-2.695,6.663-2.695s-4.077-0.46-8.745,2.235
					c-4.669,2.696-5.589,4.875-5.589,4.875s-2.301-1.118-2.301-2.306c0-1.188,0-2.898,0-2.898l-0.789,2.236
					C21.215,18.827,19.637,16.663,20.821,14.654z"/>
				<g>
					<path fill="#F6B511" d="M53.721,49.511c0,0-4.225,0.792-12.869-2.125c-3.434-1.159-7.979-4.211-12.486-5.37
						c-5.685-1.462-11.469-1.786-15.545-1.511c-6.237,0.421-7.98,4.032-7.98,4.032s-0.567-8.699,6.14-9.622
						c8.57-1.18,11.573-2.556,19.594-0.817c8.022,1.738,18.543,7.518,19.989,9.56C52.012,45.698,53.721,49.511,53.721,49.511z"/>
					<path fill="#F09829" d="M4.843,44.537c0,0-0.029-0.047-0.082-0.136c-0.553-0.925-3.697-6.41-3.337-10.911
						c0.394-4.931,3.813-8.087,6.51-9.468c2.696-1.381,8.285-2.104,8.285-2.104s0.066-2.564,1.315-2.17
						c1.249,0.394,3.09,1.775,4.603,3.222s5.063,2.433,6.772,4.274c1.71,1.841,2.301,3.157,1.842,4.274
						c-0.461,1.118-0.461,1.118-0.461,1.118s12.756,2.959,16.176,5.458c3.418,2.499,6.18,5.392,7.43,8.548s-0.173,2.871-0.173,2.871
						l-10.611-8.46c0,0,2.695,0.657,3.879,1.71c1.184,1.052,3.814,3.682,3.157,2.433c-0.657-1.249-2.696-5.458-10.718-7.43
						c-8.022-1.973-12.559-2.499-15.32-3.222c-2.761-0.724-6.378-0.132-10.521,1.184c-4.143,1.315-5.224,0.884-7.036,2.367
						C5.829,38.684,4.58,42.102,4.843,44.537z"/>
					<path fill="#F6B511" d="M1.424,33.49c0.073-0.91,0.249-1.759,0.504-2.548c1.155-2.343,3.045-4.525,5.132-6.422
						c0.296-0.186,0.589-0.352,0.874-0.498c2.696-1.381,8.285-2.104,8.285-2.104s0.066-2.564,1.314-2.17
						c1.25,0.394,3.09,1.775,4.603,3.222c1.512,1.447,5.063,2.433,6.772,4.274c0.018,0.02,0.034,0.038,0.051,0.057
						c0.23,0.747,0.239,1.59-0.183,2.493c-1.512,3.237-1.972,1.988-5.523,1.461c-3.551-0.526-4.866,0.526-8.746,1.644
						c-3.879,1.118-7.758,0.526-8.811,3.156C4.919,38,4.5,41.807,4.336,43.657C3.312,41.788,1.119,37.288,1.424,33.49z"/>
					<path fill="#F3D27E" d="M2.87,36.646c0,0-1.113-7.414,3.353-10.521c4.467-3.107,10.455-3.945,8.417-2.499
						c-2.039,1.447-8.022,3.419-9.732,6.444C3.199,33.095,2.87,36.646,2.87,36.646z"/>
					<path fill="#1F1A17" d="M20.295,27.769c0,0-0.724-2.433-2.433-2.893s-2.235-0.131-2.301,0.329s0.92,1.236,2.367,1.007
						C19.375,25.983,20.295,27.769,20.295,27.769z"/>
					<path fill="#F3D27E" d="M15.256,39.253c9.666-0.526,21.322,3.332,24.92,6.181c1.826,1.446,3.592,2.498,4.891,3.185
						c-1.265-0.311-2.667-0.712-4.214-1.234c-3.434-1.159-7.979-4.211-12.485-5.37c-5.685-1.462-11.47-1.786-15.545-1.511
						c-6.237,0.421-7.98,4.032-7.98,4.032S5.59,39.78,15.256,39.253z"/>
				</g>
				<path fill="#FEFEFE" d="M51.019,64.349c0,0,1.929-8.241-4.033-12.537l1.052,2.981c0,0-1.827-1.883-3.156-1.227l1.658,2.106
					c0,0-2.008-1.404-3.411,0.085C43.128,55.756,48.564,57.86,51.019,64.349z"/>
				<g>
					<circle fill="#FEFEFE" cx="44.689" cy="21.654" r="0.92"/>
					<path fill="#EBAE00" d="M45.15,19.706c0.317-0.424,1.381-0.879,2.761,0.633c1.381,1.512,1.25,4.998-1.38,6.312
						c-2.631,1.315-5.129,0.658-6.247-1.118c-1.118-1.775-0.065-2.887,0.46-2.2c0.526,0.688,2.038,3.252,3.945,2.068
						c1.907-1.183,2.104-2.63,1.644-3.419C45.873,21.194,44.492,20.585,45.15,19.706z"/>
					<path fill="#F8D687" d="M40.248,23.151c0.167-0.058,0.352-0.006,0.496,0.183c0.526,0.688,2.038,3.252,3.945,2.068
						c1.907-1.183,2.104-2.63,1.644-3.419c-0.46-0.789-1.841-1.397-1.184-2.277c0.056-0.075,0.136-0.15,0.236-0.217
						c0.708,0.368,1.494,1.25,1.736,2.56c0.329,1.775-0.636,3.351-2.838,4.163c-2.202,0.812-3.672-0.875-3.935-2.454
						C40.31,23.522,40.277,23.322,40.248,23.151z"/>
				</g>
				<g>
					<path fill="#FEFEFE" d="M49.226,26.212c0,0,4.406-1.467,5.26-5.149c0.855-3.683-0.789-3.684-2.17-3.683
						c-1.381,0-3.091,0.987-3.091,0.987S52.383,21.761,49.226,26.212z"/>
					<path fill="#C3C3C3" d="M52.514,22.181c0.407-1.761-0.43-3.683-0.994-4.71c0.268-0.057,0.538-0.091,0.796-0.091
						c1.381,0,3.025,0,2.17,3.683c-0.407,1.755-1.622,3.006-2.781,3.836C51.966,24.19,52.263,23.264,52.514,22.181z"/>
				</g>
				<g>
					<path fill="#FEFEFE" d="M57.116,32.635c0,0-8.109,0-12.833-1.381c-4.724-1.38-9.59-4.471-9.59-4.471s4.734,4.077,3.485,3.879
						s-4.734-1.775-4.734-1.775s0.131,0.986,1.447,1.775c1.315,0.789,2.761,1.019,2.761,1.019h-3.09c0,0,1.775,0.888,5.984,1.743
						S53.566,34.608,57.116,32.635z"/>
					<path fill="#DEDEDC" d="M40.853,33.483l2.574-0.651l-1.895-0.724h2.751l-2.707-1.808c0.883,0.358,1.797,0.688,2.707,0.953
						c4.723,1.381,12.833,1.381,12.833,1.381C53.65,34.561,45.168,34.292,40.853,33.483z"/>
				</g>
				<path fill="#DFE0DD" d="M59.939,34.41c0,0,8.771-3.857,21.045,5.523h-2.192c0,0,1.929,1.402,3.858,7.452
					C82.651,47.386,72.372,34.73,59.939,34.41z"/>
				<path fill="#DFE0DD" d="M65.38,32.199c0,0,6.049-2.954,12.187,1.426C77.566,33.625,69.237,30.952,65.38,32.199z"/>
				<g>
					<path fill="#DEDFDC" d="M68.799,97.534c0,0,9.556-18.235-2.28-31.474c0,0,0.175,20.866-13.063,27.88
						c0,0,0.075-0.105,0.205-0.303l0,0c10.374-9.77,10.053-33.539,10.053-33.539c11.397,6.187,12.537,23.934,12.537,23.934
						c3.945-7.452,0.789-23.671,0.789-23.671C90.278,65.445,95.45,83.067,95.45,83.067c3.332-10.608-8.504-31.824-8.504-31.824
						c6.75,1.052,18.235,17.358,18.235,17.358C101.938,49.665,88.7,35.725,88.7,35.725c6.225,1.14,15.342,6.663,15.342,6.663
						C99.571,29.237,77.917,14.07,77.917,14.07c3.682-0.351,9.556,0,9.556,0c-7.014-3.77-21.391-6.488-21.391-6.488l6.312-2.279
						L67.02,3.153c6.656,0.659,8.836,1.864,8.836,1.864l-6.312,2.367c0,0,12.822-0.789,25.183,8.285c0,0-4.866-0.066-7.364,0.986
						c0,0,25.622,13.545,28.866,42.477c0,0-10.608-6.838-13.589-8.154c0,0,13.94,9.293,5.874,40.504c0,0-2.016-19.113-11.047-23.539
						c0,0,7.803,17.753-7.189,33.622c0,0,5.874-22.006-8.417-30.247C81.862,71.32,82.564,88.679,68.799,97.534z"/>
					<path fill="#DEDFDC" d="M54.859,64.307l0.482,2.279l0.92-2.192c1.112,1.749,1.474,4.553,1.399,7.749
						c-0.328-1.09-0.758-2.186-1.311-3.277c0,0-5.083,17.014-19.576,19.024C53.119,82.453,54.859,64.307,54.859,64.307z"/>
				</g>
			</g>
		</g>
	</g>
</g>
</svg>
