<?xml version="1.0" encoding="UTF-8"?>
<svg width="19px" height="13px" viewBox="0 0 19 13" version="1.1" xmlns="http://www.w3.org/2000/svg" xmlns:xlink="http://www.w3.org/1999/xlink">
    <!-- Generator: Sketch 52.6 (67491) - http://www.bohemiancoding.com/sketch -->
    <title>View</title>
    <desc>Created with Sketch.</desc>
    <g id="Design-1" stroke="none" stroke-width="1" fill="none" fill-rule="evenodd">
        <g id="9-Sign-Up---Email" transform="translate(-325.000000, -549.000000)" fill="#FFFFFF">
            <g id="3" transform="translate(30.000000, 520.000000)">
                <path d="M304.179688,29 C306.236989,29 308.09244,29.5794213 309.746094,30.7382812 C311.399748,31.8971412 312.591142,33.4010324 313.320312,35.25 C312.591142,37.0989676 311.399748,38.6028588 309.746094,39.7617188 C308.09244,40.9205787 306.236989,41.5 304.179688,41.5 C302.122386,41.5 300.260425,40.9205787 298.59375,39.7617188 C296.927075,38.6028588 295.72917,37.0989676 295,35.25 C295.72917,33.4010324 296.927075,31.8971412 298.59375,30.7382812 C300.260425,29.5794213 302.122386,29 304.179688,29 Z M304.179688,39.4296875 C305.325527,39.4296875 306.302079,39.0195354 307.109375,38.1992188 C307.916671,37.3789021 308.320312,36.3958391 308.320312,35.25 C308.320312,34.1041609 307.916671,33.1210979 307.109375,32.3007812 C306.302079,31.4804646 305.325527,31.0703125 304.179688,31.0703125 C303.033848,31.0703125 302.050785,31.4804646 301.230469,32.3007812 C300.410152,33.1210979 300,34.1041609 300,35.25 C300,36.3958391 300.410152,37.3789021 301.230469,38.1992188 C302.050785,39.0195354 303.033848,39.4296875 304.179688,39.4296875 Z M304.160156,32.75 C304.850264,32.75 305.442706,32.990883 305.9375,33.4726562 C306.432294,33.9544295 306.679688,34.5468715 306.679688,35.25 C306.679688,35.9531285 306.432294,36.5455705 305.9375,37.0273438 C305.442706,37.509117 304.850264,37.75 304.160156,37.75 C303.470049,37.75 302.884117,37.509117 302.402344,37.0273438 C301.920571,36.5455705 301.679688,35.9531285 301.679688,35.25 C301.679688,34.5468715 301.920571,33.9544295 302.402344,33.4726562 C302.884117,32.990883 303.470049,32.75 304.160156,32.75 Z" id="View"></path>
            </g>
        </g>
    </g>
</svg>