<?xml version="1.0" encoding="utf-8"?>
<!-- Generator: Adobe Illustrator 16.0.0, SVG Export Plug-In . SVG Version: 6.00 Build 0)  -->
<!DOCTYPE svg PUBLIC "-//W3C//DTD SVG 1.0//EN" "http://www.w3.org/TR/2001/REC-SVG-20010904/DTD/svg10.dtd">
<svg version="1.0" id="Layer_1" xmlns="http://www.w3.org/2000/svg" xmlns:xlink="http://www.w3.org/1999/xlink" x="0px" y="0px"
	 width="13.04px" height="13.04px" viewBox="0 0 13.04 13.04" enable-background="new 0 0 13.04 13.04" xml:space="preserve">
<path fill="#FFFFFF" d="M11.639,0H1.4C0.628,0,0,0.628,0,1.4v10.238c0,0.772,0.628,1.4,1.4,1.4h10.238c0.772,0,1.4-0.628,1.4-1.4
	V1.4C13.039,0.628,12.411,0,11.639,0z M1.65,1.65h9.738v5.964l-1.314-1.256C9.516,5.826,8.628,5.845,8.095,6.404l-4.763,4.984H1.65
	V1.65z M5.614,11.389l3.501-3.664l2.273,2.173v1.491H5.614z"/>
<circle fill="#FFFFFF" cx="4.875" cy="5.002" r="1.646"/>
</svg>
