<?xml version="1.0" encoding="utf-8"?>
<!-- Generator: Adobe Illustrator 16.0.0, SVG Export Plug-In . SVG Version: 6.00 Build 0)  -->
<!DOCTYPE svg PUBLIC "-//W3C//DTD SVG 1.0//EN" "http://www.w3.org/TR/2001/REC-SVG-20010904/DTD/svg10.dtd">
<svg version="1.0" id="Layer_1" xmlns="http://www.w3.org/2000/svg" xmlns:xlink="http://www.w3.org/1999/xlink" x="0px" y="0px"
	 width="13px" height="13px" viewBox="0 0 13 13" enable-background="new 0 0 13 13" xml:space="preserve">
<title>Group</title>
<desc>Created with Sketch.</desc>
<g id="Group_1_" transform="translate(13.000000, 10.000000)">
	<g>
		<path fill="#0F153D" d="M-0.723,1h-11.555C-12.675,1-13,1.45-13,2s0.325,1,0.722,1h11.555C-0.325,3,0,2.55,0,2S-0.325,1-0.723,1z"
			/>
		<path fill="#0F153D" d="M-0.723-4h-11.555C-12.675-4-13-3.55-13-3s0.325,1,0.722,1h11.555C-0.325-2,0-2.45,0-3S-0.325-4-0.723-4z"
			/>
		<path fill="#0F153D" d="M-0.723-9h-11.555C-12.675-9-13-8.55-13-8s0.325,1,0.722,1h11.555C-0.325-7,0-7.45,0-8S-0.325-9-0.723-9z"
			/>
	</g>
</g>
</svg>
