<?xml version="1.0" encoding="utf-8"?>
<!-- Generator: Adobe Illustrator 16.0.0, SVG Export Plug-In . SVG Version: 6.00 Build 0)  -->
<!DOCTYPE svg PUBLIC "-//W3C//DTD SVG 1.0//EN" "http://www.w3.org/TR/2001/REC-SVG-20010904/DTD/svg10.dtd">
<svg version="1.0" id="Layer_1" xmlns="http://www.w3.org/2000/svg" xmlns:xlink="http://www.w3.org/1999/xlink" x="0px" y="0px"
	 width="10.253px" height="13.04px" viewBox="0 0 10.253 13.04" enable-background="new 0 0 10.253 13.04" xml:space="preserve">
<path fill="#FFFFFF" d="M6.519,13.038C2.924,13.038,0,10.113,0,6.519C0,2.924,2.924,0,6.519,0c1.172,0,2.326,0.321,3.339,0.927
	c0.284,0.17,0.436,0.496,0.384,0.823c-0.052,0.327-0.298,0.588-0.62,0.662C7.69,2.849,6.341,4.539,6.341,6.519
	c0,1.98,1.349,3.669,3.281,4.107c0.322,0.073,0.568,0.336,0.621,0.662c0.052,0.327-0.101,0.652-0.385,0.822
	C8.845,12.718,7.691,13.038,6.519,13.038z M6.519,1.62c-2.702,0-4.899,2.198-4.899,4.899s2.198,4.9,4.899,4.9
	c0.257,0,0.514-0.021,0.768-0.062c-1.573-1.055-2.565-2.839-2.565-4.837s0.992-3.783,2.565-4.837C7.033,1.641,6.776,1.62,6.519,1.62
	z"/>
</svg>
