<?xml version="1.0" encoding="utf-8"?>
<!-- Generator: Adobe Illustrator 16.0.0, SVG Export Plug-In . SVG Version: 6.00 Build 0)  -->
<!DOCTYPE svg PUBLIC "-//W3C//DTD SVG 1.0//EN" "http://www.w3.org/TR/2001/REC-SVG-20010904/DTD/svg10.dtd">
<svg version="1.0" id="Layer_1" xmlns="http://www.w3.org/2000/svg" xmlns:xlink="http://www.w3.org/1999/xlink" x="0px" y="0px"
	 width="26px" height="26px" viewBox="0 0 26 26" enable-background="new 0 0 26 26" xml:space="preserve">
<g>
	<path fill-rule="evenodd" clip-rule="evenodd" fill="#455A64" d="M22.884,17.329c-0.542-0.271-3.203-1.58-3.699-1.761
		s-0.856-0.271-1.218,0.271c-0.36,0.541-1.397,1.762-1.714,2.122c-0.316,0.361-0.631,0.406-1.173,0.135
		c-0.541-0.27-2.285-0.842-4.352-2.686c-1.61-1.436-2.695-3.208-3.011-3.75c-0.316-0.542-0.034-0.834,0.237-1.104
		c0.243-0.243,0.541-0.632,0.812-0.949c0.271-0.316,0.361-0.542,0.542-0.903s0.09-0.677-0.045-0.949
		c-0.135-0.27-1.218-2.935-1.669-4.018c-0.439-1.056-0.885-0.913-1.218-0.93C6.06,2.792,5.699,2.789,5.338,2.789
		c-0.36,0-0.947,0.135-1.443,0.678C3.399,4.007,2,5.317,2,7.981c0,2.665,1.94,5.239,2.21,5.6c0.271,0.361,3.817,5.828,9.246,8.173
		c1.292,0.558,2.3,0.891,3.086,1.141c1.297,0.411,2.477,0.354,3.41,0.215c1.039-0.156,3.202-1.31,3.653-2.574
		s0.451-2.349,0.316-2.574C23.787,17.735,23.424,17.6,22.884,17.329"/>
</g>
</svg>
