<?xml version="1.0" encoding="utf-8"?>
<!-- Generator: Adobe Illustrator 16.0.0, SVG Export Plug-In . SVG Version: 6.00 Build 0)  -->
<!DOCTYPE svg PUBLIC "-//W3C//DTD SVG 1.0//EN" "http://www.w3.org/TR/2001/REC-SVG-20010904/DTD/svg10.dtd">
<svg version="1.0" id="Layer_1" xmlns="http://www.w3.org/2000/svg" xmlns:xlink="http://www.w3.org/1999/xlink" x="0px" y="0px"
	 width="13.484px" height="13.04px" viewBox="0 0 13.484 13.04" enable-background="new 0 0 13.484 13.04" xml:space="preserve">
<path fill="#FFFFFF" d="M12.035,5.656H1.448C0.649,5.656,0,5.006,0,4.208V1.449C0,0.65,0.649,0,1.448,0h10.587
	c0.799,0,1.448,0.65,1.448,1.449v2.758C13.483,5.006,12.834,5.656,12.035,5.656z M1.695,3.96h10.093V1.696H1.695V3.96z"/>
<path fill="#FFFFFF" d="M12.035,13.041H1.448C0.649,13.041,0,12.392,0,11.592V8.834c0-0.799,0.65-1.449,1.449-1.449h10.587
	c0.799,0,1.448,0.65,1.448,1.449v2.758C13.483,12.392,12.834,13.041,12.035,13.041z M1.695,11.345h10.093V9.081H1.695V11.345z"/>
</svg>
