<?xml version="1.0" encoding="UTF-8"?>
<svg width="17px" height="18px" viewBox="0 0 17 18" version="1.1" xmlns="http://www.w3.org/2000/svg" xmlns:xlink="http://www.w3.org/1999/xlink">
    <!-- Generator: Sketch 52.6 (67491) - http://www.bohemiancoding.com/sketch -->
    <title>Shape</title>
    <desc>Created with Sketch.</desc>
    <g id="Design-1" stroke="none" stroke-width="1" fill="none" fill-rule="evenodd">
        <g id="6-My-Feed" transform="translate(-16.000000, -53.000000)" fill="#FFFFFF" fill-rule="nonzero">
            <g id="Navbar" transform="translate(0.000000, 40.000000)">
                <g id="Search" transform="translate(13.000000, 10.000000)">
                    <path d="M15.5,14 L14.71,14 L14.43,13.73 C15.63,12.33 16.25,10.42 15.91,8.39 C15.44,5.61 13.12,3.39 10.32,3.05 C6.09,2.53 2.53,6.09 3.05,10.32 C3.39,13.12 5.61,15.44 8.39,15.91 C10.42,16.25 12.33,15.63 13.73,14.43 L14,14.71 L14,15.5 L18.25,19.75 C18.66,20.16 19.33,20.16 19.74,19.75 C20.15,19.34 20.15,18.67 19.74,18.26 L15.5,14 Z M9.5,14 C7.01,14 5,11.99 5,9.5 C5,7.01 7.01,5 9.5,5 C11.99,5 14,7.01 14,9.5 C14,11.99 11.99,14 9.5,14 Z" id="Shape"></path>
                </g>
            </g>
        </g>
    </g>
</svg>