<?xml version="1.0" encoding="utf-8"?>
<!-- Generator: Adobe Illustrator 16.0.0, SVG Export Plug-In . SVG Version: 6.00 Build 0)  -->
<!DOCTYPE svg PUBLIC "-//W3C//DTD SVG 1.0//EN" "http://www.w3.org/TR/2001/REC-SVG-20010904/DTD/svg10.dtd">
<svg version="1.0" id="Layer_1" xmlns="http://www.w3.org/2000/svg" xmlns:xlink="http://www.w3.org/1999/xlink" x="0px" y="0px"
	 width="13.04px" height="13.04px" viewBox="0 0 13.04 13.04" enable-background="new 0 0 13.04 13.04" xml:space="preserve">
<path fill="#FFFFFF" d="M6.52,9.811c-1.814,0-3.29-1.477-3.29-3.291c0-1.814,1.476-3.29,3.29-3.29c1.814,0,3.291,1.476,3.291,3.29
	C9.811,8.334,8.334,9.811,6.52,9.811z M6.52,4.894c-0.896,0-1.626,0.729-1.626,1.626c0,0.897,0.729,1.626,1.626,1.626
	c0.897,0,1.626-0.729,1.626-1.626C8.146,5.623,7.417,4.894,6.52,4.894z"/>
<path fill="#FFFFFF" d="M6.52,2.455c-0.459,0-0.832-0.373-0.832-0.832V0.832C5.688,0.373,6.06,0,6.52,0s0.833,0.373,0.833,0.832
	v0.791C7.352,2.082,6.979,2.455,6.52,2.455z"/>
<path fill="#FFFFFF" d="M3.057,3.889c-0.213,0-0.426-0.081-0.588-0.244L1.91,3.086c-0.325-0.325-0.325-0.852,0-1.177
	s0.852-0.325,1.177,0l0.559,0.559c0.325,0.325,0.325,0.852,0,1.177C3.482,3.808,3.27,3.889,3.057,3.889z"/>
<path fill="#FFFFFF" d="M1.622,7.352h-0.79C0.373,7.352,0,6.979,0,6.52s0.373-0.832,0.832-0.832h0.79
	c0.459,0,0.832,0.373,0.832,0.832S2.082,7.352,1.622,7.352z"/>
<path fill="#FFFFFF" d="M2.498,11.373c-0.213,0-0.426-0.081-0.588-0.243c-0.325-0.325-0.325-0.853,0-1.177l0.559-0.559
	c0.325-0.325,0.852-0.324,1.177,0s0.325,0.852,0,1.176l-0.558,0.56C2.924,11.292,2.711,11.373,2.498,11.373z"/>
<path fill="#FFFFFF" d="M6.52,13.039c-0.459,0-0.832-0.372-0.832-0.832v-0.789c0-0.46,0.373-0.832,0.832-0.832
	s0.833,0.372,0.833,0.832v0.789C7.352,12.667,6.979,13.039,6.52,13.039z"/>
<path fill="#FFFFFF" d="M10.541,11.373c-0.213,0-0.426-0.081-0.588-0.243l-0.559-0.56c-0.325-0.324-0.325-0.852,0-1.176
	c0.324-0.325,0.852-0.325,1.176,0l0.56,0.559c0.325,0.324,0.325,0.852,0,1.177C10.967,11.292,10.754,11.373,10.541,11.373z"/>
<path fill="#FFFFFF" d="M12.207,7.352h-0.789c-0.46,0-0.832-0.373-0.832-0.833s0.372-0.832,0.832-0.832h0.789
	c0.46,0,0.832,0.373,0.832,0.832S12.667,7.352,12.207,7.352z"/>
<path fill="#FFFFFF" d="M9.982,3.888c-0.213,0-0.426-0.081-0.588-0.244c-0.325-0.325-0.325-0.852,0-1.177l0.559-0.559
	c0.324-0.324,0.852-0.325,1.177,0s0.325,0.852,0,1.177l-0.56,0.558C10.408,3.807,10.195,3.888,9.982,3.888z"/>
</svg>
