<?xml version="1.0" encoding="utf-8"?>
<!-- Generator: Adobe Illustrator 16.0.0, SVG Export Plug-In . SVG Version: 6.00 Build 0)  -->
<!DOCTYPE svg PUBLIC "-//W3C//DTD SVG 1.0//EN" "http://www.w3.org/TR/2001/REC-SVG-20010904/DTD/svg10.dtd">
<svg version="1.0" id="Layer_1" xmlns="http://www.w3.org/2000/svg" xmlns:xlink="http://www.w3.org/1999/xlink" x="0px" y="0px"
	 width="26px" height="26px" viewBox="0 0 26 26" enable-background="new 0 0 26 26" xml:space="preserve">
<g>
	<path fill-rule="evenodd" clip-rule="evenodd" fill="#455A64" d="M20.794,5.16c-2.068-2.07-4.818-3.211-7.749-3.212
		C7.008,1.947,2.094,6.861,2.092,12.9c-0.001,1.931,0.503,3.815,1.462,5.477L2,24.053l5.807-1.523
		c1.6,0.873,3.401,1.333,5.235,1.333h0.004l0,0c6.037,0,10.952-4.914,10.954-10.954C24.001,9.982,22.863,7.23,20.794,5.16
		 M13.046,22.013h-0.003c-1.634-0.001-3.236-0.439-4.634-1.269l-0.333-0.197L4.63,21.451l0.92-3.36l-0.216-0.344
		c-0.912-1.45-1.393-3.125-1.392-4.846c0.002-5.02,4.086-9.104,9.108-9.104c2.432,0.001,4.718,0.949,6.437,2.67
		c1.719,1.721,2.665,4.008,2.664,6.441C22.148,17.929,18.064,22.013,13.046,22.013 M18.04,15.194
		c-0.274-0.137-1.619-0.799-1.87-0.891s-0.434-0.137-0.616,0.137c-0.183,0.274-0.707,0.89-0.867,1.073
		c-0.16,0.183-0.319,0.206-0.593,0.068c-0.273-0.137-1.156-0.426-2.201-1.358c-0.814-0.726-1.363-1.622-1.523-1.896
		c-0.16-0.274-0.017-0.422,0.12-0.559c0.123-0.123,0.274-0.32,0.411-0.48c0.137-0.16,0.182-0.274,0.273-0.457
		s0.046-0.342-0.023-0.479c-0.068-0.137-0.616-1.484-0.844-2.032C10.086,7.788,9.86,7.86,9.692,7.852
		c-0.16-0.008-0.342-0.01-0.524-0.01c-0.183,0-0.479,0.069-0.73,0.343S7.48,9.121,7.48,10.468s0.981,2.648,1.118,2.832
		c0.137,0.183,1.93,2.947,4.676,4.133c0.653,0.282,1.163,0.45,1.56,0.576c0.656,0.208,1.252,0.179,1.724,0.108
		c0.526-0.078,1.619-0.662,1.847-1.301s0.228-1.188,0.16-1.301C18.496,15.4,18.314,15.331,18.04,15.194"/>
</g>
</svg>
